<svg xmlns="http://www.w3.org/2000/svg" xmlns:xlink="http://www.w3.org/1999/xlink" version="1.1" x="0px" y="0px" viewBox="0 0 512 512" enable-background="new 0 0 512 512" xml:space="preserve" preserveAspectRatio="none" width="100%" height="100%" class="" fill="rgba(232, 140, 48, 1)"><path d="M480.708,250.008c0-123.904-100.803-224.707-224.707-224.707S31.292,126.104,31.292,250.008  c0,64.636,27.448,122.969,71.281,164.001c-0.983,0.882-1.749,2.011-2.174,3.315c-0.896,2.762-0.149,5.794,1.932,7.821l22.388,21.82  l-5.285,30.813c-0.489,2.861,0.686,5.755,3.035,7.461c2.352,1.709,5.461,1.933,8.036,0.581l27.669-14.546l27.67,14.546  c1.117,0.587,2.337,0.877,3.551,0.877c1.582,0,3.157-0.491,4.485-1.458c2.35-1.706,3.524-4.6,3.035-7.461l-1.976-11.521  c7.641,2.162,15.445,3.925,23.391,5.272l-1.072,6.249c-0.489,2.861,0.686,5.755,3.035,7.461c1.331,0.967,2.903,1.458,4.485,1.458  c1.214,0,2.434-0.29,3.549-0.877l21.319-11.206c2.111,0.062,4.229,0.103,6.354,0.103s4.243-0.041,6.354-0.103l21.314,11.206  c2.573,1.352,5.688,1.128,8.037-0.581c2.35-1.706,3.524-4.6,3.035-7.461l-1.072-6.248c7.945-1.348,15.75-3.111,23.391-5.271  l-1.976,11.52c-0.489,2.861,0.686,5.755,3.035,7.461c2.354,1.709,5.464,1.933,8.036,0.581l27.67-14.546l27.669,14.546  c1.117,0.587,2.337,0.877,3.552,0.877c1.582,0,3.156-0.491,4.484-1.458c2.35-1.706,3.524-4.6,3.035-7.461l-5.188-30.246  l21.631-16.729c2.273-1.757,3.365-4.638,2.829-7.458c-0.534-2.819-2.607-5.102-5.364-5.904l-0.6-0.174  C451.773,376.097,480.708,316.374,480.708,250.008z M178.107,438.84c-1.799,1.754-2.62,4.279-2.195,6.753l3.35,19.528l-17.536-9.219  c-1.112-0.584-2.332-0.877-3.552-0.877c-1.219,0-2.438,0.293-3.551,0.877l-17.537,9.219l3.351-19.528  c0.425-2.474-0.397-4.999-2.195-6.753l-14.188-13.83l19.607-2.85c2.483-0.359,4.632-1.922,5.744-4.172l8.77-17.771l8.77,17.771  c1.113,2.25,3.262,3.813,5.745,4.172l19.607,2.85L178.107,438.84z M80.188,250.008c0-96.943,78.87-175.811,175.813-175.811  c96.943,0,175.811,78.868,175.811,175.811c0,55.889-26.23,105.75-67.008,137.973l-4.136-8.382c-1.286-2.603-3.938-4.252-6.842-4.252  s-5.557,1.649-6.843,4.252l-13.836,28.037l-28.235,4.103l-28.235-4.103l-13.833-28.034c-1.287-2.605-3.939-4.255-6.843-4.255  s-5.556,1.649-6.842,4.252l-13.836,28.037l-28.235,4.103l-28.235-4.103L165.017,379.6c-1.286-2.603-3.939-4.252-6.843-4.252  c-2.902,0-5.556,1.649-6.842,4.252l-4.136,8.381C106.419,355.756,80.188,305.896,80.188,250.008z M220.909,456.492  c-9.868-1.671-19.501-4.033-28.853-7.037l-0.427-2.488l13.202-12.869c2.04,0.568,4.091,1.105,6.157,1.606l11.554,11.263  L220.909,456.492z M275.935,438.84c-1.799,1.754-2.62,4.279-2.196,6.753l3.351,19.528l-17.536-9.219  c-2.226-1.168-4.88-1.168-7.101,0l-17.541,9.221l3.35-19.53c0.425-2.474-0.396-4.999-2.195-6.753l-14.188-13.83l19.61-2.85  c2.483-0.359,4.632-1.922,5.744-4.172l8.77-17.77l8.768,17.768c1.112,2.252,3.261,3.814,5.744,4.174l19.61,2.85L275.935,438.84z   M319.943,449.455c-9.352,3.004-18.984,5.367-28.853,7.037l-1.634-9.525l11.553-11.262c2.066-0.501,4.118-1.039,6.158-1.606  l13.202,12.868L319.943,449.455z M374.417,438.27c-2.232,1.726-3.331,4.542-2.854,7.323l3.351,19.528l-17.537-9.219  c-1.112-0.584-2.332-0.877-3.551-0.877c-1.22,0-2.439,0.293-3.552,0.877l-17.536,9.219l3.35-19.528  c0.425-2.474-0.396-4.999-2.195-6.753l-14.188-13.83l19.608-2.85c2.482-0.359,4.631-1.922,5.744-4.172l8.77-17.771l8.77,17.771  c0.945,1.918,2.657,3.351,4.711,3.949l20.509,5.968L374.417,438.27z M388.377,412.176l-13.585-3.953l-3.1-6.281  c45.774-34.938,75.378-90.033,75.378-151.933c0-105.357-85.712-191.069-191.069-191.069c-105.356,0-191.071,85.712-191.071,191.069  c0,61.899,29.604,116.994,75.378,151.931l-2.812,5.697l-16.449,2.391c-45.521-38.451-74.496-95.906-74.496-160.019  c0-115.49,93.96-209.448,209.45-209.448s209.448,93.958,209.448,209.448C465.449,315.324,435.381,373.735,388.377,412.176z"></path><path d="M376.48,228.826c4.965-4.855,8.052-11.628,8.052-19.106c0-14.742-11.993-26.735-26.735-26.735h-60.315v-41.657  c0-18.219-14.821-33.041-33.041-33.041s-33.041,14.822-33.036,33.319c0.008,0.226,0.819,22.975,0.012,34.536  c-0.441,6.357-14.147,25.658-31.443,35.341c-6.286-8.246-16.205-13.58-27.352-13.58h-12.698c-18.96,0-34.383,15.422-34.383,34.382  v87.763c0,18.96,15.423,34.383,34.383,34.383h12.698c10.728,0,20.32-4.939,26.63-12.662c8.076,5.854,17.985,9.324,28.701,9.324  h129.845c14.742,0,26.735-11.993,26.735-26.735c0-7.478-3.087-14.248-8.052-19.106c4.965-4.857,8.052-11.627,8.052-19.105  s-3.087-14.248-8.052-19.105c4.965-4.858,8.052-11.628,8.052-19.106S381.445,233.684,376.48,228.826z M330.574,236.456h27.223  c6.328,0,11.477,5.148,11.477,11.479c0,6.328-5.148,11.477-11.477,11.477h-27.223c-4.214,0-7.629,3.415-7.629,7.63  s3.415,7.629,7.629,7.629h27.223c6.328,0,11.477,5.148,11.477,11.477s-5.148,11.477-11.477,11.477h-27.223  c-4.214,0-7.629,3.415-7.629,7.629c0,4.215,3.415,7.63,7.629,7.63h27.223c6.328,0,11.477,5.148,11.477,11.477  s-5.148,11.477-11.477,11.477H227.952c-8.321,0-15.945-3.028-21.842-8.032c0.578-2.493,0.893-5.086,0.893-7.754v-87.763  c0-2.354-0.238-4.654-0.691-6.877c22.23-11.872,39.47-35.897,40.329-48.203c0.861-12.358,0.048-35.189,0.018-35.877  c0-9.805,7.977-17.782,17.782-17.782c9.805,0,17.782,7.978,17.782,17.782v56.916h75.574c6.328,0,11.477,5.148,11.477,11.477  s-5.148,11.477-11.477,11.477h-27.223c-4.214,0-7.629,3.415-7.629,7.629C322.945,233.041,326.36,236.456,330.574,236.456z"></path></svg>
