<svg xmlns="http://www.w3.org/2000/svg" xmlns:xlink="http://www.w3.org/1999/xlink" version="1.1" x="0px" y="0px" viewBox="0 0 100 100" enable-background="new 0 0 100 100" xml:space="preserve" preserveAspectRatio="none" width="100%" height="100%" class="" fill="rgba(232, 140, 48, 1)"><g><rect y="-36" width="100" height="30"></rect><text transform="matrix(1 0 0 1 66 -19.5)" font-family="'Helvetica'" font-size="2.4">http://thenounproject.com</text><text transform="matrix(1 0 0 1 7.166 -24.5)" font-family="'Helvetica-Bold'" font-size="6.1578">The Noun Project</text><text transform="matrix(1 0 0 1 8.2861 -19.6992)" font-family="'Helvetica-Bold'" font-size="4">Icon Template</text><line stroke="#FFFFFF" stroke-miterlimit="10" x1="8" y1="-14.5" x2="18" y2="-14.5"></line></g><g><path d="M49.19,32.001c1.59,0,2.879-1.289,2.879-2.879v-9.744c0-1.59-1.289-2.879-2.879-2.879   c-1.59,0-2.88,1.289-2.88,2.879v9.744C46.311,30.713,47.6,32.001,49.19,32.001z"></path><path d="M78.671,22.092c-1.125-1.126-2.947-1.126-4.072,0l-6.888,6.889c-1.127,1.125-1.127,2.946-0.002,4.072   c1.124,1.123,2.947,1.123,4.072,0l6.89-6.89C79.794,25.039,79.794,23.216,78.671,22.092z"></path><path d="M30.671,33.551c1.124-1.125,1.124-2.947,0-4.071l-6.889-6.89c-1.124-1.124-2.947-1.124-4.071,0   c-1.125,1.125-1.125,2.947-0.002,4.072l6.891,6.888C27.724,34.675,29.547,34.675,30.671,33.551z"></path><path d="M49.248,36.107c-6.202-0.003-12.436,2.376-17.169,7.112c-0.023,0.021-0.039,0.043-0.062,0.063   c-0.019,0.019-0.037,0.036-0.055,0.055h-0.001l-0.004,0.005c-4.733,4.733-7.111,10.964-7.108,17.167   c-0.003,6.201,2.377,12.438,7.113,17.17c4.733,4.736,10.966,7.114,17.172,7.111c6.201,0.003,12.437-2.375,17.169-7.111   c0.023-0.021,0.044-0.048,0.067-0.07c0.015-0.015,0.032-0.031,0.048-0.048l0.002-0.001l0.004-0.005   c4.732-4.73,7.112-10.964,7.108-17.166c0.005-6.203-2.376-12.439-7.112-17.17C61.686,38.484,55.451,36.104,49.248,36.107z    M58.683,48.985c1.704,0,3.085,1.381,3.085,3.084c0,1.704-1.381,3.084-3.085,3.084c-1.703,0-3.084-1.38-3.084-3.084   C55.599,50.366,56.979,48.985,58.683,48.985z M39.767,48.985c1.704,0,3.084,1.381,3.084,3.084c0,1.704-1.38,3.084-3.084,3.084   c-1.703,0-3.084-1.38-3.084-3.084C36.683,50.366,38.063,48.985,39.767,48.985z M61.68,71.401c-3.311,3.314-7.714,5.14-12.399,5.14   c-0.006,0-0.016,0-0.022,0c-0.027,0.001-0.054,0.001-0.079,0.001c-0.006,0-0.013,0-0.02,0c-4.682-0.003-9.081-1.827-12.389-5.139   c-1.205-1.204-1.205-3.156,0.001-4.361c1.204-1.204,3.157-1.203,4.361,0.001c2.136,2.138,4.975,3.319,7.997,3.331   c0.057-0.002,0.114-0.002,0.169-0.001c0,0,0.001,0,0.002,0c3.034-0.008,5.875-1.189,8.014-3.331   c1.203-1.205,3.156-1.206,4.361-0.002S62.883,70.196,61.68,71.401z"></path></g></svg>
