<svg xmlns="http://www.w3.org/2000/svg" xmlns:xlink="http://www.w3.org/1999/xlink" version="1.1" x="0px" y="0px" viewBox="0 0 100 100" enable-background="new 0 0 100 100" xml:space="preserve" preserveAspectRatio="none" width="100%" height="100%" class="" fill="rgba(232, 140, 48, 1)"><g><path d="M82.777,39.456L61.244,27.022L18.306,51.814l21.533,12.431L82.777,39.456z M41.884,40.634   c4.14-2.391,11.374-2.09,16.155,0.67c4.783,2.761,5.302,6.938,1.16,9.328c-4.141,2.391-11.374,2.093-16.156-0.669   C38.262,47.202,37.742,43.027,41.884,40.634z"></path><path d="M91.416,39.456l-30.172-17.42L9.666,51.814l30.173,17.421L91.416,39.456z M61.244,24.53l25.853,14.926L39.839,66.741   L13.985,51.814L61.244,24.53z"></path><path d="M43.955,46.103c3.002,1.733,7.025,0.478,7.025,0.478l2.998,1.73c-1.199,0.692-2.797-0.113-2.797-0.113l-1.9,1.097   c3.209,1.852,6.387,0.569,6.887,0.281l1.047,0.604l1.199-0.693l-1.039-0.6c0,0,2.983-1.855-0.248-3.723   c-3.002-1.733-7.025-0.476-7.025-0.476l-2.982-1.723c0.299-0.175,1.286-0.408,2.131,0.079l2.004-1.155   c-2.887-1.666-5.84-0.485-6.338-0.196l-1.049-0.605l-1.199,0.691l1.039,0.603C43.707,42.382,40.725,44.239,43.955,46.103z    M55.243,46.385c1.038,0.601-0.062,1.235-0.062,1.235l-2.539-1.467C52.643,46.154,54.088,45.72,55.243,46.385z M45.9,43.648   l2.54,1.465c0,0-1.446,0.437-2.601-0.229C44.802,44.282,45.9,43.648,45.9,43.648z"></path><polygon points="9.666,52.736 9.666,53.891 39.839,71.312 91.416,41.533 91.416,40.378 39.839,70.158  "></polygon><polygon points="9.666,54.736 9.666,55.891 39.839,73.312 91.416,43.533 91.416,42.378 39.839,72.158  "></polygon><polygon points="9.666,56.736 9.666,57.891 39.839,75.312 91.416,45.533 91.416,44.378 39.839,74.158  "></polygon><polygon points="9.666,58.736 9.666,59.891 39.839,77.312 91.416,47.533 91.416,46.378 39.839,76.158  "></polygon><polygon points="9.666,60.736 9.666,61.891 39.839,79.312 91.416,49.533 91.416,48.378 39.839,78.158  "></polygon></g></svg>
