<svg xmlns="http://www.w3.org/2000/svg" xmlns:xlink="http://www.w3.org/1999/xlink" version="1.1" x="0px" y="0px" viewBox="0 0 100 100" enable-background="new 0 0 100 100" xml:space="preserve" preserveAspectRatio="none" width="100%" height="100%" class="" fill="rgba(232, 140, 48, 1)"><g><path d="M53.047,85h-7.605c-1.09,0-1.973-0.883-1.973-1.973v-5.695c-4.646-0.453-9.201-1.76-12.226-3.547   c-0.752-0.445-1.122-1.332-0.909-2.18l2.33-9.275c0.149-0.596,0.567-1.088,1.132-1.332c0.562-0.244,1.207-0.211,1.745,0.09   c2.161,1.209,6.583,3.238,11.917,3.238c1.285,0,5.478-0.213,5.478-2.945c0-1.377-0.835-2.939-6.896-5.029   c-7.121-2.449-15.298-6.523-15.298-16.376c0-7.599,4.98-13.489,13.113-15.675v-5.97c0-1.09,0.884-1.973,1.974-1.973h7.605   c1.09,0,1.974,0.883,1.974,1.973v5.134c3.887,0.353,7.224,1.238,10.155,2.691c0.832,0.412,1.264,1.349,1.038,2.249l-2.251,8.958   c-0.141,0.561-0.521,1.032-1.04,1.289c-0.521,0.255-1.124,0.271-1.655,0.042l-0.599-0.263c-2.042-0.905-5.127-2.273-9.795-2.273   c-1.756,0-4.7,0.321-4.7,2.47c0,1.354,2.256,2.748,8.047,4.975c9.957,3.59,14.223,8.581,14.223,16.67   c0,7.926-5.365,14.166-13.811,16.264v6.49C55.02,84.117,54.137,85,53.047,85z M47.415,81.053h3.658v-6.111   c0-0.957,0.687-1.775,1.629-1.943c7.513-1.336,12.181-6.211,12.181-12.725c0-5.264-1.981-9.484-11.653-12.973   c-6.031-2.319-10.615-4.419-10.615-8.673c0-3.102,2.271-6.416,8.646-6.416c4.361,0,7.581,1.026,9.827,1.938l1.281-5.101   c-2.575-1.03-5.546-1.611-9.024-1.77c-1.055-0.048-1.884-0.917-1.884-1.971v-5.005h-3.659v5.561c0,0.94-0.664,1.75-1.586,1.935   c-7.218,1.447-11.527,5.999-11.527,12.177c0,5.817,3.778,9.599,12.636,12.644c4.965,1.713,9.558,3.959,9.558,8.762   c0,4.186-3.698,6.891-9.424,6.891c-4.706,0-8.78-1.338-11.566-2.594l-1.352,5.381c2.9,1.342,7.03,2.283,10.992,2.465   c1.053,0.049,1.883,0.916,1.883,1.971V81.053z"></path></g><path d="M98.026,43.883H70.254c-1.09,0-1.974-0.884-1.974-1.973c0-1.09,0.884-1.974,1.974-1.974h27.772  c1.09,0,1.974,0.884,1.974,1.974C100,42.999,99.116,43.883,98.026,43.883z"></path><path d="M22.975,43.883H1.973C0.883,43.883,0,42.999,0,41.91c0-1.09,0.883-1.974,1.973-1.974h21.001c1.09,0,1.974,0.884,1.974,1.974  C24.948,42.999,24.064,43.883,22.975,43.883z"></path><path d="M98.026,52.137H73.428c-1.09,0-1.974-0.883-1.974-1.973c0-1.09,0.884-1.973,1.974-1.973h24.599  c1.09,0,1.974,0.883,1.974,1.973C100,51.254,99.116,52.137,98.026,52.137z"></path><path d="M25.094,52.137H1.973C0.883,52.137,0,51.254,0,50.164c0-1.09,0.883-1.973,1.973-1.973h23.121  c1.09,0,1.973,0.883,1.973,1.973C27.066,51.254,26.184,52.137,25.094,52.137z"></path><path d="M98.026,60.393H76.638c-1.09,0-1.973-0.885-1.973-1.975s0.883-1.973,1.973-1.973h21.389c1.09,0,1.974,0.883,1.974,1.973  S99.116,60.393,98.026,60.393z"></path><path d="M26.182,60.393H1.973C0.883,60.393,0,59.508,0,58.418s0.883-1.973,1.973-1.973h24.208c1.089,0,1.973,0.883,1.973,1.973  S27.271,60.393,26.182,60.393z"></path></svg>
