<svg xmlns="http://www.w3.org/2000/svg" xmlns:xlink="http://www.w3.org/1999/xlink" version="1.1" x="0px" y="0px" viewBox="0 0 100 100" enable-background="new 0 0 100 100" xml:space="preserve" preserveAspectRatio="none" width="100%" height="100%" class="" fill="rgba(232, 140, 48, 1)"><g><path d="M49.626,23.418c-14.658,0-26.575,11.914-26.575,26.572c0,14.641,11.917,26.574,26.575,26.574   c14.661,0,26.575-11.934,26.575-26.574C76.201,35.332,64.287,23.418,49.626,23.418z M49.626,72.053   c-12.153,0-22.063-9.887-22.063-22.063c0-12.153,9.89-22.061,22.063-22.061s22.063,9.907,22.063,22.061   C71.689,62.146,61.782,72.053,49.626,72.053z"></path><path d="M92.277,53.638l-1.602-2.21c-0.754-1.032-0.773-2.448-0.017-3.498l1.564-2.229c1.233-1.75,1.675-3.96,1.18-6.06   c-0.498-2.1-1.86-3.884-3.758-4.897l-2.395-1.289c-1.143-0.608-1.748-1.86-1.546-3.132l0.459-2.688   c0.35-2.119-0.22-4.292-1.564-5.967c-1.362-1.677-3.372-2.688-5.506-2.781l-2.727-0.11c-1.289-0.056-2.396-0.923-2.744-2.156   l-0.791-2.598c-0.921-3.186-3.887-5.413-7.22-5.413c-1.013,0-2.026,0.203-2.966,0.608l-2.505,1.067   c-1.16,0.498-2.578,0.186-3.406-0.754l-1.823-2.026C53.493,5.92,51.45,5,49.333,5c-2.175,0-4.236,0.94-5.674,2.578l-1.768,2.063   c-0.828,0.957-2.229,1.289-3.406,0.811l-2.524-1.03c-0.92-0.369-1.877-0.571-2.854-0.571c-3.369,0-6.353,2.266-7.239,5.525   l-0.718,2.632c-0.332,1.235-1.436,2.119-2.725,2.192l-2.708,0.166c-2.136,0.11-4.143,1.16-5.469,2.854   c-1.328,1.694-1.86,3.887-1.475,5.986l0.498,2.671c0.239,1.27-0.369,2.542-1.492,3.167l-2.375,1.326   c-1.88,1.05-3.223,2.854-3.684,4.954s0,4.309,1.272,6.04l1.602,2.192c0.754,1.033,0.774,2.449,0.017,3.498l-1.565,2.229   c-1.233,1.751-1.675,3.96-1.179,6.06c0.498,2.1,1.86,3.885,3.757,4.897l2.395,1.289c1.143,0.608,1.748,1.86,1.545,3.132   l-0.459,2.688c-0.349,2.116,0.22,4.292,1.565,5.967c1.362,1.677,3.372,2.688,5.505,2.78l2.727,0.11   c1.289,0.056,2.395,0.921,2.744,2.155l0.754,2.615c0.92,3.186,3.887,5.415,7.219,5.415c1.013,0,2.026-0.202,2.966-0.608   l2.502-1.068c1.162-0.496,2.581-0.184,3.408,0.756l1.824,2.024C45.742,94.08,47.785,95,49.902,95c2.175,0,4.236-0.938,5.674-2.578   l1.784-2.063c0.83-0.957,2.229-1.289,3.408-0.811l2.522,1.032c0.92,0.368,1.88,0.571,2.856,0.571c3.369,0,6.353-2.266,7.236-5.525   l0.718-2.634c0.332-1.233,1.438-2.116,2.727-2.192l2.725-0.164c2.156-0.129,4.144-1.162,5.469-2.855   c1.328-1.695,1.86-3.867,1.475-5.984l-0.498-2.671c-0.239-1.272,0.369-2.542,1.492-3.167l2.375-1.328   c1.88-1.049,3.223-2.854,3.685-4.953C94.011,57.578,93.55,55.369,92.277,53.638z M89.147,58.701   c-0.183,0.848-0.718,1.548-1.472,1.973L85.3,62c-2.819,1.564-4.328,4.75-3.74,7.917l0.498,2.671   c0.166,0.867-0.056,1.714-0.588,2.395c-0.535,0.682-1.309,1.087-2.192,1.141l-2.708,0.166c-3.223,0.186-5.967,2.395-6.813,5.508   l-0.718,2.615c-0.35,1.306-1.548,2.209-2.891,2.209c-0.389,0-0.774-0.073-1.143-0.22l-2.524-1.032   c-0.921-0.369-1.878-0.572-2.854-0.572c-2.173,0-4.235,0.94-5.671,2.578l-1.787,2.047c-0.571,0.661-1.382,1.029-2.266,1.029   c-0.864,0-1.658-0.349-2.227-0.993l-1.824-2.026c-1.418-1.584-3.462-2.505-5.598-2.505c-1.033,0-2.026,0.202-2.966,0.608   l-2.505,1.066c-0.386,0.166-0.771,0.242-1.177,0.242c-1.328,0-2.505-0.887-2.874-2.156l-0.754-2.615   c-0.903-3.093-3.667-5.268-6.89-5.414l-2.725-0.11c-0.867-0.036-1.658-0.425-2.192-1.106c-0.552-0.681-0.771-1.527-0.625-2.375   l0.459-2.688c0.535-3.187-1.011-6.336-3.867-7.864l-2.393-1.289c-0.774-0.405-1.309-1.106-1.511-1.953s-0.037-1.712,0.479-2.412   l1.565-2.229c1.86-2.631,1.843-6.149-0.073-8.764l-1.602-2.192c-0.515-0.701-0.701-1.565-0.498-2.412   c0.186-0.847,0.72-1.548,1.475-1.97l2.375-1.326c2.817-1.565,4.329-4.751,3.738-7.92l-0.479-2.651   c-0.166-0.867,0.056-1.714,0.588-2.395c0.535-0.681,1.309-1.086,2.192-1.14l2.708-0.166c3.223-0.186,5.947-2.395,6.814-5.508   l0.718-2.632c0.349-1.309,1.548-2.212,2.891-2.212c0.388,0,0.774,0.076,1.143,0.222l2.524,1.03c0.92,0.369,1.877,0.571,2.854,0.571   c2.173,0,4.236-0.94,5.671-2.578l1.787-2.043c0.571-0.664,1.382-1.033,2.266-1.033c0.864,0,1.658,0.352,2.227,0.996l1.823,2.024   c1.419,1.584,3.462,2.505,5.599,2.505c1.032,0,2.026-0.203,2.966-0.608l2.505-1.067c0.386-0.166,0.771-0.239,1.177-0.239   c1.328,0,2.505,0.884,2.874,2.153l0.754,2.617c0.903,3.093,3.667,5.266,6.89,5.413l2.725,0.112c0.867,0.037,1.658,0.422,2.21,1.104   c0.554,0.681,0.773,1.528,0.627,2.375l-0.461,2.69c-0.535,3.186,1.013,6.333,3.867,7.864l2.395,1.289   c0.774,0.403,1.307,1.104,1.509,1.951c0.203,0.847,0.039,1.714-0.459,2.412l-1.564,2.229c-1.86,2.634-1.844,6.15,0.073,8.768   l1.602,2.189C89.147,56.99,89.333,57.854,89.147,58.701z"></path><path d="M56.164,42.681l-9.871,9.814l-3.206-3.223c-0.884-0.884-2.302-0.884-3.186,0s-0.884,2.302-0.017,3.187l4.807,4.826   c0.422,0.422,0.994,0.662,1.602,0.662c0.588,0,1.16-0.24,1.584-0.662l11.473-11.401c0.884-0.884,0.884-2.302,0.02-3.186   C58.486,41.814,57.048,41.814,56.164,42.681z"></path></g></svg>
