<svg xmlns="http://www.w3.org/2000/svg" xmlns:xlink="http://www.w3.org/1999/xlink" version="1.1" x="0px" y="0px" viewBox="0 0 64 64" style="enable-background:new 0 0 64 64;" xml:space="preserve" preserveAspectRatio="none" width="100%" height="100%" class="" fill="rgba(232, 140, 48, 1)"><g><g><path d="M47.44,34.89c0.23-1.47,1.17-8.9-2.99-10.61c-1.52-0.63-3.65-0.68-4.97-0.64l0.37-6.95c0.07-1.26-0.62-2.45-1.69-2.96    c-0.82-0.4-1.59-0.46-2.3-0.18c-1.69,0.65-2.69,3.01-4.6,7.85c-1.4,3.54-3.29,4.78-4.56,5.21c-0.4-1.18-1.51-2.04-2.83-2.04H20.1    c-1.66,0-3,1.34-3,3v12.4c0,1.65,1.34,3,3,3h3.77c1.51,0,2.76-1.14,2.96-2.6c1.19,0.14,2.37,0.47,3.44,0.98l0.11,0.05    c1.33,0.63,2.7,1.29,4.38,1.29h6.09C44.21,42.69,46.68,39.77,47.44,34.89z M40.85,40.69h-6.09c-1.23,0-2.29-0.51-3.52-1.09    l-0.11-0.06c-1.35-0.64-2.78-1.02-4.26-1.17v-9.72c1.69-0.44,4.41-1.87,6.25-6.52c1.35-3.41,2.51-6.35,3.46-6.72    c0.07-0.03,0.26-0.1,0.71,0.12c0.36,0.17,0.59,0.6,0.57,1.05l-0.43,8.07c-0.02,0.29,0.09,0.58,0.31,0.78    c0.21,0.2,0.5,0.29,0.79,0.27c0.92-0.09,3.65-0.2,5.16,0.42c2.3,0.95,2.2,5.77,1.78,8.46C45.18,36.42,44.15,40.69,40.85,40.69z"></path><path d="M36.991,10.962c0.553,0,1-0.447,1-1V6.733c0-0.553-0.447-1-1-1s-1,0.447-1,1v3.229    C35.991,10.515,36.438,10.962,36.991,10.962z"></path><path d="M32.146,12.427c0.195,0.195,0.451,0.293,0.707,0.293s0.512-0.098,0.707-0.293c0.391-0.391,0.391-1.023,0-1.414l-1.99-1.99    c-0.391-0.391-1.023-0.391-1.414,0s-0.391,1.023,0,1.414L32.146,12.427z"></path><path d="M41.156,12.653c0.256,0,0.512-0.098,0.707-0.293l1.99-1.99c0.391-0.391,0.391-1.023,0-1.414s-1.023-0.391-1.414,0    l-1.99,1.99c-0.391,0.391-0.391,1.023,0,1.414C40.645,12.556,40.9,12.653,41.156,12.653z"></path><path d="M37.14,48.84h-2.7l-0.83-2.57c-0.23-0.7-0.88-1.17-1.61-1.17s-1.38,0.47-1.61,1.17l-0.83,2.57h-2.7    c-0.74,0-1.38,0.47-1.61,1.17c-0.23,0.7,0.02,1.45,0.61,1.89l2.19,1.58l-0.84,2.57c-0.22,0.7,0.02,1.46,0.62,1.89    c0.3,0.22,0.64,0.32,0.99,0.32c0.35,0,0.7-0.1,1-0.32L32,56.35l2.18,1.59c0.6,0.43,1.4,0.43,1.99,0c0.6-0.43,0.84-1.19,0.62-1.89    l-0.84-2.57l2.19-1.58c0.59-0.44,0.84-1.19,0.61-1.89C38.52,49.31,37.88,48.84,37.14,48.84z"></path><path d="M20.39,48.84h-2.7l-0.83-2.57c-0.23-0.7-0.88-1.17-1.61-1.17c-0.74,0-1.38,0.47-1.61,1.17l-0.84,2.57h-2.69    c-0.74,0-1.39,0.47-1.61,1.17c-0.23,0.7,0.02,1.45,0.61,1.89l2.18,1.58l-0.83,2.57c-0.23,0.7,0.02,1.46,0.62,1.89    c0.59,0.43,1.39,0.43,1.98,0l2.19-1.59l2.18,1.59c0.3,0.22,0.65,0.32,0.99,0.32c0.35,0,0.7-0.1,1-0.32    c0.59-0.43,0.84-1.19,0.61-1.89l-0.83-2.57l2.18-1.58c0.6-0.44,0.84-1.19,0.62-1.89C21.77,49.31,21.12,48.84,20.39,48.84z"></path><path d="M55.5,50.01c-0.22-0.7-0.87-1.17-1.61-1.17H51.2l-0.84-2.57c-0.23-0.7-0.87-1.17-1.61-1.17c-0.73,0-1.38,0.47-1.61,1.17    l-0.83,2.57h-2.7c-0.73,0-1.38,0.47-1.61,1.17c-0.22,0.7,0.02,1.45,0.62,1.89l2.18,1.58l-0.83,2.57c-0.23,0.7,0.02,1.46,0.61,1.89    c0.6,0.43,1.4,0.43,1.99,0l2.18-1.59l2.19,1.59c0.29,0.22,0.64,0.32,0.99,0.32c0.35,0,0.7-0.1,0.99-0.32    c0.6-0.43,0.85-1.19,0.62-1.89l-0.83-2.57l2.18-1.58C55.48,51.46,55.73,50.71,55.5,50.01z"></path></g></g></svg>
