<svg xmlns="http://www.w3.org/2000/svg" xmlns:xlink="http://www.w3.org/1999/xlink" version="1.1" x="0px" y="0px" viewBox="0 0 491.5 491.5" style="enable-background:new 0 0 491.5 491.5;" xml:space="preserve" preserveAspectRatio="none" width="100%" height="100%" class="" fill="rgba(232, 140, 48, 1)"><style type="text/css">
	.cls-OiuVAe{fill-rule:evenodd;clip-rule:evenodd;}
</style><g><path class="cls-OiuVAe" d="M253.4,399.4l161.2-88.6V177.6l-161.2,83.5L253.4,399.4L253.4,399.4z M238.1,261.1L76.7,181v128.7l161.3,89.7   V261.1z M61.4,318.8V156.1l184.4,89.6L430,152.3v167.5L245.8,422.4L61.4,318.8L61.4,318.8z"></path><polygon points="61.4,156.2 242.5,73.3 245.6,71.9 248.6,73.3 429.5,152.3 423.5,166.1 245.7,88.4 67.6,169.8  "></polygon><polygon points="337.9,315 399.3,284.3 399.3,299.5 337.9,330.2  "></polygon><polygon points="337.9,284.4 399.3,253.7 399.3,268.9 337.9,299.6  "></polygon></g></svg>
